<svg width="30" height="30" viewBox="0 0 30 30" fill="none" xmlns="http://www.w3.org/2000/svg">
<g clip-path="url(#clip0_1621_3051)">
<path d="M29.6809 15.3375C29.6809 14.35 29.5934 13.4125 29.4434 12.5H15.3184V18.1375H23.4059C23.0434 19.9875 21.9809 21.55 20.4059 22.6125V26.3625H25.2309C28.0559 23.75 29.6809 19.9 29.6809 15.3375Z" fill="#4285F4"/>
<path d="M15.3182 29.9998C19.3682 29.9998 22.7557 28.6498 25.2307 26.3623L20.4057 22.6123C19.0557 23.5123 17.3432 24.0623 15.3182 24.0623C11.4057 24.0623 8.09317 21.4248 6.90567 17.8623H1.93066V21.7248C4.39316 26.6248 9.45567 29.9998 15.3182 29.9998Z" fill="#34A853"/>
<path d="M6.90586 17.8624C6.59336 16.9624 6.43086 15.9999 6.43086 14.9999C6.43086 13.9999 6.60586 13.0374 6.90586 12.1374V8.2749H1.93086C0.905858 10.2999 0.318359 12.5749 0.318359 14.9999C0.318359 17.4249 0.905858 19.6999 1.93086 21.7249L6.90586 17.8624Z" fill="#FBBC05"/>
<path d="M15.3182 5.9375C17.5307 5.9375 19.5057 6.7 21.0682 8.1875L25.3432 3.9125C22.7557 1.4875 19.3682 0 15.3182 0C9.45567 0 4.39316 3.375 1.93066 8.275L6.90567 12.1375C8.09317 8.575 11.4057 5.9375 15.3182 5.9375Z" fill="#EA4335"/>
</g>
<defs>
<clipPath id="clip0_1621_3051">
<rect width="30" height="30" fill="white"/>
</clipPath>
</defs>
</svg>
