<svg width="20" height="18" viewBox="0 0 20 18" fill="none" xmlns="http://www.w3.org/2000/svg">
<path d="M0.435231 1.06711C1.04489 1.06711 1.65907 1.06711 2.26873 1.06711C2.13776 0.991994 2.0068 0.921293 1.88035 0.846172C2.33647 1.61063 2.79258 2.37067 3.2487 3.13513C3.28482 3.19258 3.31644 3.25002 3.35256 3.30747C3.41579 3.40468 3.32547 3.27653 3.3345 3.25444C3.32095 3.28537 3.35708 3.38259 3.3616 3.41352C3.41579 3.714 3.46546 4.0189 3.51966 4.31938C3.88545 6.42717 4.25125 8.53495 4.62156 10.6427C4.67124 10.9211 4.72091 11.2039 4.76607 11.4823C4.85639 12.0037 5.16348 12.4324 5.68282 12.6268C6.16152 12.8035 6.77569 12.6445 7.27245 12.5826C9.39497 12.3219 11.5175 12.0612 13.6445 11.8005C15.2974 11.5972 16.9502 11.3939 18.6031 11.1907C18.6302 11.1863 18.6573 11.1818 18.6844 11.1818C18.9282 11.1509 19.136 11.0051 19.136 10.74C19.136 8.83543 19.136 6.93533 19.136 5.03081C19.136 4.76126 19.136 4.4873 19.136 4.21775C19.136 3.96587 18.9282 3.79354 18.6844 3.77586C17.0044 3.65214 15.32 3.53283 13.64 3.4091C10.962 3.21467 8.28403 3.02024 5.60605 2.82581C4.99187 2.78162 4.38221 2.73744 3.76804 2.69325C3.52417 2.67557 3.31644 2.90977 3.31644 3.13513C3.31644 3.38701 3.52417 3.55934 3.76804 3.57702C5.44799 3.70074 7.13245 3.82005 8.8124 3.94378C11.4904 4.13821 14.1684 4.33264 16.8464 4.52707C17.4605 4.57125 18.0702 4.61544 18.6844 4.65963C18.5353 4.51381 18.3818 4.36357 18.2328 4.21775C18.2328 6.12227 18.2328 8.02237 18.2328 9.92689C18.2328 10.1964 18.2328 10.4704 18.2328 10.74C18.3818 10.5941 18.5353 10.4439 18.6844 10.2981C17.1218 10.4925 15.5548 10.6825 13.9923 10.8769C11.7252 11.1553 9.46271 11.4337 7.19568 11.7121C6.93827 11.743 6.68085 11.774 6.42344 11.8049C6.11635 11.8447 5.77766 11.8181 5.6783 11.4646C5.62863 11.2791 5.60605 11.0802 5.57444 10.8946C5.50218 10.4704 5.42541 10.0462 5.35315 9.62199C4.98284 7.50094 4.61704 5.38432 4.24673 3.26328C4.21512 3.08652 4.18351 2.95396 4.08867 2.79488C3.8132 2.33532 3.53772 1.87576 3.26224 1.41178C3.06354 1.07595 2.87838 0.722445 2.66162 0.404289C2.47646 0.134739 2.16937 0.183347 1.88487 0.183347C1.56875 0.183347 1.25263 0.183347 0.936506 0.183347C0.769415 0.183347 0.602323 0.183347 0.435231 0.183347C-0.142817 0.183347 -0.147333 1.06711 0.435231 1.06711Z" fill="#FF4C00"/>
<path d="M5.87375 11.902C5.59827 11.9594 5.30021 11.9904 5.03829 12.092C4.45572 12.3173 4.14412 12.852 4.14412 13.453C4.1396 14.0009 4.33379 14.5223 4.8441 14.8096C5.0699 14.9377 5.31828 14.9863 5.57569 14.9863C6.36147 14.9907 7.14726 14.9863 7.93304 14.9863C9.39171 14.9863 10.8459 14.9863 12.3045 14.9863C13.7587 14.9863 15.2083 14.9863 16.6625 14.9863C17.4121 14.9863 18.1663 15.0128 18.9159 14.9863C18.925 14.9863 18.9385 14.9863 18.9476 14.9863C19.5301 14.9863 19.5301 14.1026 18.9476 14.1026C17.0554 14.1026 15.1632 14.1026 13.271 14.1026C10.8233 14.1026 8.37109 14.1026 5.92342 14.1026C5.66149 14.1026 5.34989 14.1512 5.16925 13.9391C4.97506 13.7093 4.9841 13.1834 5.23248 12.989C5.35892 12.8918 5.53053 12.8741 5.68407 12.8432C5.82859 12.8123 5.9731 12.7813 6.11761 12.7548C6.68211 12.6399 6.44276 11.7871 5.87375 11.902Z" fill="#FF4C00"/>
<path d="M8.91745 15.985C8.9039 16.5064 8.48391 16.9394 7.94199 16.9394C7.4091 16.9394 6.96654 16.5064 6.96654 15.985C6.96654 15.4635 7.4091 15.0305 7.94199 15.0305C8.48391 15.0305 8.90841 15.4635 8.91745 15.985C8.93099 16.555 9.83419 16.555 9.82064 15.985C9.80258 15.2028 9.31485 14.5179 8.56068 14.2528C7.83812 13.9965 6.98008 14.2307 6.49687 14.814C6.00011 15.4105 5.91431 16.2633 6.32978 16.9306C6.74074 17.5934 7.53104 17.9292 8.30779 17.7878C9.18841 17.6288 9.80258 16.8466 9.82516 15.985C9.83419 15.4149 8.93099 15.4149 8.91745 15.985Z" fill="#FF4C00"/>
<path d="M16.4636 15.985C16.45 16.5064 16.0301 16.9394 15.4881 16.9394C14.9552 16.9394 14.5127 16.5064 14.5127 15.985C14.5127 15.4635 14.9552 15.0305 15.4881 15.0305C16.0301 15.0305 16.45 15.4635 16.4636 15.985C16.4771 16.555 17.3803 16.555 17.3668 15.985C17.3487 15.2028 16.861 14.5179 16.1068 14.2528C15.3843 13.9965 14.5262 14.2307 14.043 14.814C13.5463 15.4105 13.4605 16.2633 13.8759 16.9306C14.2869 17.5934 15.0772 17.9292 15.8539 17.7878C16.7345 17.6288 17.3487 16.8466 17.3713 15.985C17.3803 15.4149 16.4771 15.4149 16.4636 15.985Z" fill="#FF4C00"/>
</svg>
