<svg width="40" height="40" viewBox="0 0 40 40" fill="none" xmlns="http://www.w3.org/2000/svg">
<g clip-path="url(#clip0_1507_2859)">
<path d="M0.000457764 27.2972C0.000457764 27.7922 0.401687 28.1934 0.896659 28.1934H39.1038C39.3415 28.1934 39.5698 28.0991 39.7377 27.9306C39.9057 27.7626 40 27.5349 40 27.2972V26.401H0L0.000457764 27.2972Z" fill="#FF4C00"/>
<path d="M35.832 19.5301L31.1121 17.7862L27.4643 21.4425L27.4637 21.442C27.2958 21.6083 27.0681 21.7003 26.832 21.6981C26.5954 21.7031 26.3666 21.6105 26.1998 21.442C26.0307 21.2751 25.9358 21.0474 25.9358 20.8103C25.9358 20.5725 26.0307 20.3449 26.1998 20.178L29.2639 17.106L27.4156 16.4258L23.7678 20.0736V20.0742C23.6004 20.2422 23.3732 20.337 23.1361 20.3381C22.8978 20.3398 22.6696 20.2444 22.5038 20.0742C22.3347 19.9073 22.2399 19.6797 22.2399 19.4419C22.2399 19.2048 22.3347 18.9771 22.5038 18.8102L25.5998 15.7461L23.7515 15.058L20.1037 18.7059C19.9407 18.8939 19.7075 19.005 19.4586 19.0139C19.2103 19.0228 18.9697 18.928 18.794 18.7522C18.6182 18.5764 18.5233 18.3353 18.5317 18.087C18.5406 17.8387 18.6522 17.6049 18.8397 17.4419L21.8722 14.3621L14.6724 11.7142H14.6719C14.2489 13.6115 13.0916 15.2645 11.4537 16.3119C9.81589 17.3599 7.82989 17.7165 5.92974 17.3047C4.0296 16.8929 2.36946 15.7455 1.31203 14.1138L0.607789 16.13H0.608347C0.200975 17.2946 -0.00493865 18.52 8.99216e-05 19.7538V25.5138H40.0001C39.9973 24.2108 39.5966 22.9395 38.8516 21.8704C38.1067 20.8006 37.0536 19.9843 35.8321 19.53L35.832 19.5301Z" fill="#FF4C00"/>
</g>
<defs>
<clipPath id="clip0_1507_2859">
<rect width="40" height="40" fill="white"/>
</clipPath>
</defs>
</svg>
