<svg width="24" height="22" viewBox="0 0 24 22" fill="none" xmlns="http://www.w3.org/2000/svg">
<path d="M2.40396 15.9231C2.03131 15.7678 1.78857 15.4037 1.78857 15V4L11.0193 0.153846C11.5117 -0.0512819 12.0655 -0.0512822 12.5578 0.153846L16.7886 1.91667L21.7886 4V15C21.7886 15.4037 21.5458 15.7678 21.1732 15.9231L11.7886 19.8333L2.40396 15.9231Z" fill="#26221F"/>
<path fill-rule="evenodd" clip-rule="evenodd" d="M8.18884 5.82472L18.0875 1.52095L17.4894 0.145345L6.28221 5.01804L0.576923 2.64084L0 4.02546L5.99772 6.5245L11.0385 8.66315V21.3331H12.5385V8.6563L23.0902 4.01978L22.4867 2.64651L11.7833 7.34972L8.18884 5.82472Z" fill="white"/>
</svg>
