<svg width="24" height="24" viewBox="0 0 24 24" fill="none" xmlns="http://www.w3.org/2000/svg">
<path d="M10.8891 23.4469C8.44219 20.4375 3 13.1438 3 9.04688C3 4.07625 7.02938 0.046875 12 0.046875C16.9688 0.046875 21 4.07625 21 9.04688C21 13.1438 15.5156 20.4375 13.1109 23.4469C12.5344 24.1641 11.4656 24.1641 10.8891 23.4469ZM12 12.0469C13.6547 12.0469 15 10.7016 15 9.04688C15 7.39219 13.6547 6.04688 12 6.04688C10.3453 6.04688 9 7.39219 9 9.04688C9 10.7016 10.3453 12.0469 12 12.0469Z" fill="#26221F"/>
</svg>
