<svg width="44" height="33" viewBox="0 0 44 33" fill="none" xmlns="http://www.w3.org/2000/svg">
<path d="M11.8213 28.6743V27.098C11.831 26.9654 11.811 26.8324 11.7626 26.7078C11.7143 26.5832 11.6388 26.4698 11.541 26.3754C11.4433 26.2809 11.3256 26.2074 11.1959 26.1599C11.0661 26.1124 10.9273 26.0918 10.7886 26.0997C10.6071 26.0884 10.4257 26.1238 10.2634 26.2024C10.1011 26.2809 9.96375 26.3997 9.86575 26.5463C9.77643 26.4041 9.64868 26.2875 9.49593 26.2089C9.34319 26.1303 9.17111 26.0926 8.99783 26.0997C8.84678 26.0924 8.69636 26.123 8.56147 26.1885C8.42659 26.2539 8.31191 26.3519 8.22878 26.4727V26.1627H7.65747V28.6743H8.23425V27.2819C8.22178 27.196 8.22936 27.1085 8.25644 27.0257C8.28352 26.9429 8.32943 26.8669 8.39088 26.8031C8.45232 26.7393 8.52778 26.6893 8.61182 26.6567C8.69587 26.6241 8.78642 26.6097 8.87696 26.6146C9.25599 26.6146 9.44827 26.851 9.44827 27.2766V28.6743H10.0251V27.2819C10.0135 27.1961 10.0218 27.109 10.0492 27.0266C10.0766 26.9442 10.1226 26.8686 10.1838 26.805C10.2451 26.7414 10.3201 26.6914 10.4037 26.6585C10.4873 26.6256 10.5775 26.6106 10.6678 26.6146C11.0577 26.6146 11.2445 26.851 11.2445 27.2766V28.6743H11.8213ZM20.3577 26.1627H19.4238V25.4009H18.8471V26.1627H18.3142V26.6619H18.8471V27.8073C18.8471 28.3905 19.0833 28.7374 19.7589 28.7374C20.0113 28.7381 20.2588 28.6707 20.473 28.5429L20.3083 28.0753C20.155 28.1627 19.9812 28.2115 19.8029 28.2172C19.5172 28.2172 19.4238 28.049 19.4238 27.7968V26.6619H20.3577V26.1627ZM25.2301 26.0997C25.0908 26.0958 24.953 26.1278 24.8312 26.1926C24.7094 26.2573 24.6081 26.3523 24.538 26.4675V26.1627H23.9722V28.6743H24.5435V27.2661C24.5435 26.851 24.7302 26.6199 25.1038 26.6199C25.226 26.6183 25.3473 26.6397 25.4608 26.6829L25.6366 26.168C25.5061 26.1233 25.3687 26.1002 25.2301 26.0997ZM17.8638 26.3624C17.5404 26.1785 17.1686 26.0873 16.7926 26.0997C16.1279 26.0997 15.6995 26.4044 15.6995 26.9036C15.6995 27.3134 16.0181 27.5657 16.6058 27.6445L16.875 27.6812C17.1881 27.7232 17.3364 27.8021 17.3364 27.9439C17.3364 28.1383 17.1277 28.2487 16.7377 28.2487C16.424 28.2573 16.1163 28.1648 15.8643 27.986L15.5951 28.4116C15.9279 28.6339 16.3265 28.7481 16.7322 28.7374C17.4902 28.7374 17.9297 28.3958 17.9297 27.9177C17.9297 27.4763 17.5836 27.2451 17.0123 27.1663L16.7432 27.1295C16.496 27.098 16.2982 27.0507 16.2982 26.8826C16.2982 26.6987 16.485 26.5883 16.7981 26.5883C17.0856 26.5925 17.3673 26.6666 17.6166 26.8038L17.8638 26.3624ZM33.1677 26.0997C33.0284 26.0958 32.8906 26.1278 32.7688 26.1926C32.647 26.2573 32.5457 26.3523 32.4756 26.4675V26.1627H31.9098V28.6743H32.4811V27.2661C32.4811 26.851 32.6679 26.6199 33.0414 26.6199C33.1636 26.6182 33.2849 26.6397 33.3985 26.6829L33.5742 26.168C33.4438 26.1233 33.3063 26.1002 33.1677 26.0997ZM25.8069 27.4185C25.7993 27.5954 25.8305 27.7719 25.8985 27.9366C25.9665 28.1013 26.0698 28.2506 26.2017 28.3748C26.3337 28.499 26.4913 28.5955 26.6646 28.6579C26.8378 28.7204 27.0228 28.7474 27.2077 28.7374C27.5507 28.7539 27.8877 28.647 28.1525 28.4378L27.8778 27.9965C27.6803 28.1405 27.4395 28.2197 27.1912 28.2224C26.9771 28.21 26.776 28.1199 26.629 27.9705C26.482 27.8211 26.4002 27.6237 26.4002 27.4185C26.4002 27.2133 26.482 27.0159 26.629 26.8665C26.776 26.7171 26.9771 26.627 27.1912 26.6146C27.4395 26.6173 27.6803 26.6965 27.8778 26.8406L28.1525 26.3992C27.8877 26.19 27.5506 26.0832 27.2077 26.0997C27.0228 26.0896 26.8379 26.1167 26.6646 26.1791C26.4914 26.2416 26.3337 26.338 26.2018 26.4622C26.0698 26.5864 25.9665 26.7357 25.8985 26.9004C25.8305 27.065 25.7993 27.2415 25.8069 27.4185ZM31.1572 27.4185V26.1627H30.5859V26.4675C30.4884 26.3473 30.3622 26.2512 30.2179 26.1872C30.0736 26.1232 29.9154 26.0932 29.7565 26.0997C29.4025 26.1163 29.0687 26.2625 28.8243 26.508C28.5799 26.7535 28.4436 27.0795 28.4436 27.4185C28.4436 27.7575 28.5799 28.0836 28.8243 28.3291C29.0687 28.5746 29.4025 28.7208 29.7565 28.7374C29.9154 28.7439 30.0736 28.7138 30.2179 28.6498C30.3622 28.5859 30.4884 28.4897 30.5859 28.3695V28.6743H31.1572V27.4185ZM29.0314 27.4185C29.0402 27.2703 29.0942 27.1278 29.1868 27.0086C29.2793 26.8894 29.4062 26.7987 29.552 26.7477C29.6977 26.6967 29.8559 26.6876 30.007 26.7216C30.1581 26.7555 30.2954 26.831 30.4022 26.9388C30.509 27.0465 30.5804 27.1818 30.6078 27.3279C30.6351 27.4741 30.6171 27.6246 30.5561 27.7611C30.495 27.8976 30.3935 28.014 30.2641 28.096C30.1348 28.1779 29.9831 28.2219 29.8279 28.2224C29.7191 28.2238 29.6112 28.2037 29.511 28.1632C29.4108 28.1227 29.3204 28.0628 29.2455 27.9873C29.1707 27.9118 29.113 27.8223 29.0762 27.7243C29.0393 27.6264 29.0241 27.5223 29.0314 27.4185ZM22.1375 26.0997C21.7812 26.1176 21.4461 26.2668 21.2023 26.516C20.9586 26.7652 20.8252 27.095 20.8302 27.4362C20.8352 27.7774 20.9781 28.1035 21.229 28.3461C21.4799 28.5887 21.8193 28.7289 22.1759 28.7374C22.5679 28.7505 22.9511 28.6252 23.2526 28.3853L22.9724 27.9807C22.7555 28.147 22.4868 28.2395 22.2089 28.2434C22.0201 28.2586 21.8326 28.2029 21.6859 28.0882C21.5393 27.9734 21.4452 27.8086 21.4234 27.6286H23.3734C23.3789 27.5604 23.3844 27.4921 23.3844 27.4185C23.3789 26.6356 22.8736 26.0997 22.1375 26.0997ZM22.1265 26.5883C22.299 26.5851 22.4659 26.6475 22.5905 26.7617C22.7151 26.876 22.7872 27.0328 22.7912 27.1978H21.4288C21.4389 27.0292 21.5175 26.871 21.6478 26.7571C21.7782 26.6432 21.95 26.5826 22.1265 26.5883ZM36.4581 27.4185V25.1539H35.8868V26.4675C35.7893 26.3473 35.6631 26.2512 35.5188 26.1872C35.3745 26.1232 35.2163 26.0932 35.0574 26.0997C34.7034 26.1163 34.3696 26.2625 34.1252 26.508C33.8808 26.7535 33.7445 27.0795 33.7445 27.4185C33.7445 27.7575 33.8808 28.0836 34.1252 28.3291C34.3696 28.5746 34.7034 28.7208 35.0574 28.7374C35.2163 28.7439 35.3745 28.7138 35.5188 28.6498C35.6631 28.5859 35.7893 28.4897 35.8868 28.3695V28.6743H36.4581V27.4185ZM37.4104 28.3103C37.4459 28.3101 37.4811 28.3168 37.5138 28.3299C37.5452 28.3425 37.5739 28.3606 37.5982 28.3834C37.6224 28.4062 37.6417 28.4332 37.6551 28.463C37.6689 28.4936 37.6759 28.5265 37.6759 28.5598C37.6759 28.5931 37.6689 28.6261 37.6551 28.6567C37.6416 28.6863 37.6223 28.7132 37.5982 28.7359C37.5738 28.7587 37.5452 28.7769 37.5138 28.7897C37.4811 28.8031 37.446 28.8098 37.4104 28.8096C37.3582 28.8101 37.3069 28.7959 37.2631 28.7687C37.2192 28.7415 37.1847 28.7025 37.1639 28.6567C37.1502 28.6261 37.1431 28.5931 37.1431 28.5598C37.1431 28.5265 37.1502 28.4936 37.1639 28.463C37.1773 28.4333 37.1965 28.4063 37.2205 28.3834C37.2448 28.3605 37.2736 28.3423 37.3053 28.3299C37.3386 28.3167 37.3744 28.3101 37.4104 28.3103ZM37.4104 28.7545C37.4375 28.7547 37.4643 28.7495 37.4892 28.7392C37.513 28.7293 37.5347 28.7152 37.5531 28.6976C37.591 28.661 37.6123 28.6115 37.6123 28.5599C37.6123 28.5084 37.591 28.4589 37.5531 28.4223C37.5347 28.4047 37.513 28.3907 37.4892 28.381C37.4643 28.3709 37.4375 28.3658 37.4104 28.366C37.3829 28.3658 37.3556 28.3709 37.3302 28.381C37.3059 28.3906 37.2839 28.4046 37.2653 28.4223C37.2273 28.4589 37.206 28.5084 37.206 28.5599C37.206 28.6115 37.2273 28.661 37.2653 28.6976C37.2839 28.7154 37.306 28.7295 37.3302 28.7392C37.3556 28.7495 37.3829 28.7547 37.4104 28.7545ZM37.4258 28.4431C37.4515 28.4415 37.477 28.4485 37.4978 28.463C37.5061 28.4695 37.5127 28.4778 37.5171 28.4872C37.5215 28.4966 37.5235 28.5069 37.523 28.5171C37.5233 28.5259 37.5217 28.5347 37.5182 28.5429C37.5148 28.551 37.5095 28.5584 37.5029 28.5645C37.487 28.578 37.4669 28.5861 37.4456 28.5875L37.525 28.675H37.4629L37.3894 28.5881H37.3657V28.675H37.3139V28.4431H37.4258ZM37.3657 28.4866V28.5483H37.4252C37.4366 28.5489 37.448 28.5462 37.4578 28.5407C37.4618 28.5381 37.4651 28.5346 37.4672 28.5305C37.4693 28.5263 37.4703 28.5217 37.4699 28.5171C37.4702 28.5126 37.4692 28.5081 37.4671 28.5041C37.465 28.5001 37.4618 28.4966 37.4578 28.4941C37.448 28.4886 37.4366 28.486 37.4252 28.4866H37.3657ZM34.3323 27.4185C34.3412 27.2703 34.3952 27.1278 34.4877 27.0086C34.5802 26.8894 34.7072 26.7987 34.8529 26.7478C34.9987 26.6968 35.1568 26.6877 35.3079 26.7216C35.459 26.7556 35.5964 26.8311 35.7031 26.9389C35.8099 27.0466 35.8813 27.1819 35.9086 27.328C35.936 27.4741 35.918 27.6247 35.8569 27.7612C35.7959 27.8976 35.6944 28.014 35.565 28.096C35.4356 28.1779 35.284 28.2219 35.1288 28.2224C35.02 28.2238 34.9121 28.2036 34.8119 28.1632C34.7117 28.1227 34.6213 28.0628 34.5464 27.9873C34.4716 27.9118 34.414 27.8222 34.3771 27.7243C34.3402 27.6264 34.325 27.5223 34.3323 27.4185ZM15.0403 27.4185V26.1627H14.469V26.4675C14.3715 26.3473 14.2453 26.2512 14.101 26.1872C13.9567 26.1232 13.7984 26.0932 13.6395 26.0997C13.2855 26.1163 12.9518 26.2625 12.7074 26.508C12.463 26.7535 12.3267 27.0795 12.3267 27.4185C12.3267 27.7575 12.463 28.0836 12.7074 28.3291C12.9518 28.5746 13.2855 28.7208 13.6395 28.7374C13.7984 28.7439 13.9567 28.7138 14.101 28.6498C14.2453 28.5859 14.3715 28.4897 14.469 28.3695V28.6743H15.0403V27.4185ZM12.9145 27.4185C12.9233 27.2703 12.9774 27.1278 13.0699 27.0086C13.1624 26.8894 13.2893 26.7987 13.4351 26.7478C13.5808 26.6968 13.739 26.6877 13.8901 26.7216C14.0411 26.7556 14.1785 26.8311 14.2853 26.9389C14.392 27.0466 14.4635 27.1819 14.4908 27.328C14.5181 27.4741 14.5002 27.6247 14.4391 27.7612C14.378 27.8976 14.2765 28.014 14.1472 28.096C14.0178 28.178 13.8661 28.2219 13.7109 28.2224C13.6022 28.2238 13.4943 28.2036 13.394 28.1632C13.2938 28.1227 13.2034 28.0628 13.1286 27.9873C13.0538 27.9118 12.9961 27.8222 12.9593 27.7243C12.9224 27.6264 12.9072 27.5223 12.9145 27.4185Z" fill="#231F20"/>
<path d="M26.3267 7.02161H17.6738V21.8951H26.3267V7.02161Z" fill="#FF5F00"/>
<path d="M18.2232 14.4591C18.2218 13.0267 18.5611 11.6127 19.2155 10.3243C19.8699 9.03587 20.8222 7.90673 22.0002 7.02236C20.5414 5.92553 18.7893 5.24343 16.9444 5.05402C15.0994 4.86461 13.236 5.17553 11.567 5.95124C9.89808 6.72696 8.49096 7.93616 7.50651 9.44065C6.52206 10.9451 6 12.6842 6 14.4591C6 16.234 6.52206 17.973 7.50651 19.4775C8.49096 20.982 9.89808 22.1912 11.567 22.9669C13.236 23.7427 15.0994 24.0536 16.9444 23.8642C18.7893 23.6748 20.5414 22.9927 22.0002 21.8958C20.8222 21.0115 19.8699 19.8823 19.2155 18.5939C18.5612 17.3055 18.2218 15.8915 18.2232 14.4591Z" fill="#EB001B"/>
<path d="M37.9999 14.4591C38 16.2339 37.478 17.973 36.4936 19.4775C35.5092 20.982 34.1022 22.1912 32.4332 22.9669C30.7643 23.7426 28.9009 24.0536 27.056 23.8642C25.211 23.6747 23.459 22.9926 22.0002 21.8958C23.1772 21.0106 24.1288 19.8812 24.783 18.593C25.4373 17.3048 25.7773 15.8913 25.7773 14.4591C25.7773 13.0269 25.4373 11.6134 24.783 10.3252C24.1288 9.03694 23.1772 7.90762 22.0002 7.02235C23.459 5.92553 25.211 5.24343 27.056 5.05402C28.9009 4.86461 30.7643 5.17554 32.4332 5.95126C34.1022 6.72698 35.5092 7.93619 36.4936 9.44068C37.478 10.9452 38 12.6842 37.9999 14.4591Z" fill="#F79E1B"/>
<path d="M37.0565 20.3204V20.0159H37.1848V19.9539H36.8579V20.0159H36.9863V20.3204H37.0565ZM37.6911 20.3204V19.9532H37.5909L37.4757 20.2058L37.3604 19.9532H37.2601V20.3204H37.3309V20.0435L37.439 20.2822H37.5123L37.6204 20.0428V20.3204H37.6911Z" fill="#F79E1B"/>
<rect x="0.25" y="0.25" width="43.5" height="32.5" rx="4.75" stroke="#C5C5C5" stroke-width="0.5"/>
</svg>
