<svg width="21" height="20" viewBox="0 0 21 20" fill="none" xmlns="http://www.w3.org/2000/svg">
<path fill-rule="evenodd" clip-rule="evenodd" d="M5.17236 3.91943C2.41094 3.91943 0.172363 6.15801 0.172363 8.91943V14.9194C0.172363 17.6809 2.41094 19.9194 5.17236 19.9194H15.1724C17.85 19.9194 20.036 17.8147 20.1662 15.1694H15.6724C13.8774 15.1694 12.4224 13.7144 12.4224 11.9194C12.4224 10.1245 13.8774 8.66943 15.6724 8.66943H20.1662C20.036 6.02416 17.85 3.91943 15.1724 3.91943H5.17236ZM15.6724 10.1694H20.1724V13.6694H15.6724C14.7059 13.6694 13.9224 12.8859 13.9224 11.9194C13.9224 10.9529 14.7059 10.1694 15.6724 10.1694ZM4.17236 14.6694C3.75815 14.6694 3.42236 15.0052 3.42236 15.4194C3.42236 15.8336 3.75815 16.1694 4.17236 16.1694H10.1724C10.5866 16.1694 10.9224 15.8336 10.9224 15.4194C10.9224 15.0052 10.5866 14.6694 10.1724 14.6694H4.17236ZM15.6724 11.1694C15.2582 11.1694 14.9224 11.5052 14.9224 11.9194C14.9224 12.3336 15.2582 12.6694 15.6724 12.6694H15.8724C16.2866 12.6694 16.6224 12.3336 16.6224 11.9194C16.6224 11.5052 16.2866 11.1694 15.8724 11.1694H15.6724Z" fill="#26221F"/>
<path d="M17.6601 2.91246C16.9391 0.921082 14.8329 -0.364563 12.6137 0.0923341L4.01301 1.86307C2.21662 2.23291 0.761237 3.41714 0 4.98248C1.18746 3.42474 3.06259 2.41943 5.17251 2.41943H15.1725C16.0537 2.41943 16.8939 2.59477 17.6601 2.91246Z" fill="#26221F"/>
</svg>
