<svg width="20" height="20" viewBox="0 0 20 20" fill="none" xmlns="http://www.w3.org/2000/svg">
<path d="M11.446 4.24003L14.829 0.33503C15.219 -0.11497 15.934 -0.11297 16.387 0.34103L19.169 3.12803C19.997 3.95703 20.234 5.18803 19.755 6.17503C16.8934 12.1 12.115 16.8851 6.194 19.755C5.208 20.234 3.97799 19.997 3.15 19.168L0.341995 16.355C-0.113005 15.9 -0.114004 15.181 0.339996 14.791L4.26 11.426C4.67 11.074 5.307 11.12 5.718 11.532L7.082 12.898C7.15183 12.9712 7.24375 13.0195 7.34365 13.0354C7.44354 13.0513 7.5459 13.0339 7.635 12.986C9.86455 11.7021 11.714 9.85026 12.995 7.61903C13.043 7.52978 13.0603 7.42726 13.0444 7.32719C13.0285 7.22711 12.9803 7.13502 12.907 7.06503L11.547 5.70403C11.135 5.29003 11.09 4.65003 11.446 4.23903V4.24003Z" fill="#26221F"/>
</svg>
