<svg width="24" height="20" viewBox="0 0 24 20" fill="none" xmlns="http://www.w3.org/2000/svg">
<path d="M23.1429 2.28582H18.8571V0.785819C18.8571 0.667962 18.7607 0.571533 18.6429 0.571533H17.1429C17.025 0.571533 16.9286 0.667962 16.9286 0.785819V2.28582H12.9643V0.785819C12.9643 0.667962 12.8679 0.571533 12.75 0.571533H11.25C11.1321 0.571533 11.0357 0.667962 11.0357 0.785819V2.28582H7.07143V0.785819C7.07143 0.667962 6.975 0.571533 6.85714 0.571533H5.35714C5.23929 0.571533 5.14286 0.667962 5.14286 0.785819V2.28582H0.857143C0.383036 2.28582 0 2.66885 0 3.14296V18.5715C0 19.0456 0.383036 19.4287 0.857143 19.4287H23.1429C23.617 19.4287 24 19.0456 24 18.5715V3.14296C24 2.66885 23.617 2.28582 23.1429 2.28582ZM9.64286 14.7144C9.64286 14.8322 9.54643 14.9287 9.42857 14.9287H4.5C4.38214 14.9287 4.28571 14.8322 4.28571 14.7144V13.4287C4.28571 13.3108 4.38214 13.2144 4.5 13.2144H9.42857C9.54643 13.2144 9.64286 13.3108 9.64286 13.4287V14.7144ZM9.64286 11.0715C9.64286 11.1894 9.54643 11.2858 9.42857 11.2858H4.5C4.38214 11.2858 4.28571 11.1894 4.28571 11.0715V9.78582C4.28571 9.66796 4.38214 9.57153 4.5 9.57153H9.42857C9.54643 9.57153 9.64286 9.66796 9.64286 9.78582V11.0715ZM19.6741 8.626L15.2545 14.7519C15.215 14.8067 15.1631 14.8512 15.103 14.882C15.0429 14.9128 14.9764 14.9288 14.9089 14.9288C14.8414 14.9288 14.7749 14.9128 14.7148 14.882C14.6548 14.8512 14.6028 14.8067 14.5634 14.7519L11.5045 10.5144C11.4027 10.3724 11.5045 10.1742 11.6786 10.1742H13.1491C13.2857 10.1742 13.4143 10.2412 13.4946 10.351L14.9089 12.309L17.6866 8.45993C17.767 8.34743 17.8955 8.28314 18.0321 8.28314H19.5C19.6741 8.28582 19.7759 8.48403 19.6741 8.626Z" fill="#26221F"/>
</svg>
