<svg width="69" height="31" viewBox="0 0 69 31" fill="none" xmlns="http://www.w3.org/2000/svg">
<path d="M34.2032 6.85327L30.1279 26.1963H25.1985L29.2743 6.85327H34.2032ZM54.9407 19.3433L57.535 12.0796L59.028 19.3433H54.9407ZM60.4422 26.1963H65L61.0181 6.85327H56.8138C55.8663 6.85327 55.0675 7.41101 54.714 8.27112L47.318 26.1963H52.4946L53.5222 23.3076H59.8452L60.4422 26.1963ZM47.5747 19.8815C47.5961 14.7765 40.6235 14.4937 40.6702 12.2127C40.6852 11.5197 41.3366 10.7814 42.7601 10.5926C43.4659 10.5003 45.4136 10.4255 47.6214 11.4583L48.4849 7.35489C47.2991 6.91939 45.7731 6.5 43.8743 6.5C39.0015 6.5 35.5737 9.12774 35.5463 12.8936C35.515 15.6784 37.9949 17.2311 39.8594 18.1587C41.7818 19.1066 42.4259 19.7144 42.4165 20.5615C42.4032 21.8592 40.8836 22.434 39.4686 22.4557C36.9891 22.4949 35.5518 21.7753 34.4064 21.2332L33.5116 25.4737C34.6652 26.0097 36.7907 26.4761 38.9916 26.5C44.1721 26.5 47.5592 23.9031 47.5747 19.8815ZM27.1599 6.85327L19.1734 26.1963H13.9638L10.0333 10.7592C9.79502 9.80991 9.58718 9.461 8.86253 9.05987C7.67722 8.40642 5.72055 7.79516 4 7.41492L4.11656 6.85327H12.5038C13.5721 6.85327 14.5333 7.57502 14.778 8.82451L16.8542 20.0185L21.9816 6.85327H27.1599Z" fill="#1434CB"/>
<rect x="0.25" y="0.75" width="68.5" height="29.5" rx="4.75" stroke="#C5C5C5" stroke-width="0.5"/>
</svg>
