<svg width="40" height="40" viewBox="0 0 40 40" fill="none" xmlns="http://www.w3.org/2000/svg">
<rect width="40" height="40" rx="20" fill="#26221F"/>
<g clip-path="url(#clip0_924_375)">
<path d="M28.3333 15.8334H22.5V14.1667H28.3333V15.8334ZM29.7717 24.1667C29.4033 25.2476 28.0808 26.6667 25.5208 26.6667C22.9592 26.6667 20.8842 25.2259 20.8842 21.9376C20.8842 18.6792 22.8217 17.0042 25.4392 17.0042C28.0075 17.0042 29.5758 18.4892 29.9183 20.6926C29.9833 21.1142 30.0092 21.6826 29.9975 22.4759H23.3083C23.4167 25.1517 26.2108 25.2359 27.1317 24.1667H29.7717ZM23.3667 20.8334H27.5042C27.4167 19.5442 26.5575 18.9842 25.44 18.9842C24.2183 18.9842 23.5425 19.6242 23.3667 20.8334ZM15.3883 26.6567H10V14.1842H15.7942C20.3575 14.2517 20.4442 18.7209 18.0608 19.9392C20.945 20.9892 21.0417 26.6567 15.3883 26.6567ZM12.5 19.1667H15.4867C17.5767 19.1667 17.9083 16.6667 15.2267 16.6667H12.5V19.1667ZM15.3258 21.6667H12.5V24.1801H15.2842C17.83 24.1801 17.6742 21.6667 15.3258 21.6667Z" fill="white"/>
</g>
<defs>
<clipPath id="clip0_924_375">
<rect width="20" height="20" fill="white" transform="translate(10 10)"/>
</clipPath>
</defs>
</svg>
