<svg width="40" height="40" viewBox="0 0 40 40" fill="none" xmlns="http://www.w3.org/2000/svg">
<rect width="40" height="40" rx="20" fill="#26221F"/>
<g clip-path="url(#clip0_924_369)">
<path d="M20.0001 16.7456C18.2081 16.7456 16.7457 18.208 16.7457 20C16.7457 21.792 18.2081 23.2544 20.0001 23.2544C21.7921 23.2544 23.2545 21.792 23.2545 20C23.2545 18.208 21.7921 16.7456 20.0001 16.7456ZM29.7609 20C29.7609 18.6523 29.7731 17.3169 29.6974 15.9717C29.6217 14.4092 29.2653 13.0225 28.1227 11.8799C26.9777 10.7349 25.5934 10.3809 24.0309 10.3052C22.6832 10.2295 21.3478 10.2417 20.0026 10.2417C18.6549 10.2417 17.3195 10.2295 15.9742 10.3052C14.4117 10.3809 13.025 10.7373 11.8824 11.8799C10.7374 13.0249 10.3834 14.4092 10.3077 15.9717C10.232 17.3193 10.2443 18.6548 10.2443 20C10.2443 21.3452 10.232 22.6831 10.3077 24.0283C10.3834 25.5908 10.7399 26.9775 11.8824 28.1201C13.0275 29.2651 14.4117 29.6191 15.9742 29.6948C17.3219 29.7705 18.6573 29.7583 20.0026 29.7583C21.3502 29.7583 22.6857 29.7705 24.0309 29.6948C25.5934 29.6191 26.9801 29.2627 28.1227 28.1201C29.2677 26.9751 29.6217 25.5908 29.6974 24.0283C29.7755 22.6831 29.7609 21.3476 29.7609 20ZM20.0001 25.0073C17.2291 25.0073 14.9928 22.771 14.9928 20C14.9928 17.229 17.2291 14.9927 20.0001 14.9927C22.7711 14.9927 25.0074 17.229 25.0074 20C25.0074 22.771 22.7711 25.0073 20.0001 25.0073ZM25.2125 15.957C24.5655 15.957 24.0431 15.4346 24.0431 14.7876C24.0431 14.1406 24.5655 13.6182 25.2125 13.6182C25.8595 13.6182 26.382 14.1406 26.382 14.7876C26.3821 14.9412 26.352 15.0934 26.2933 15.2353C26.2346 15.3773 26.1485 15.5063 26.0399 15.6149C25.9312 15.7236 25.8022 15.8097 25.6603 15.8684C25.5183 15.9271 25.3661 15.9572 25.2125 15.957Z" fill="white"/>
</g>
<defs>
<clipPath id="clip0_924_369">
<rect width="20" height="20" fill="white" transform="translate(10 10)"/>
</clipPath>
</defs>
</svg>
