<svg width="40" height="40" viewBox="0 0 40 40" fill="none" xmlns="http://www.w3.org/2000/svg">
<rect width="40" height="40" rx="20" fill="#FF4C00"/>
<path fill-rule="evenodd" clip-rule="evenodd" d="M17.8575 17.4742H20.9525V19.0159C21.3983 18.1292 22.5416 17.3326 24.2591 17.3326C27.5516 17.3326 28.3333 19.0976 28.3333 22.3359V28.3334H25V23.0734C25 21.2292 24.5541 20.1892 23.4191 20.1892C21.845 20.1892 21.1908 21.3101 21.1908 23.0726V28.3334H17.8575V17.4742ZM12.1416 28.1917H15.475V17.3326H12.1416V28.1917ZM15.9525 13.7917C15.9526 14.0711 15.8972 14.3478 15.7894 14.6056C15.6817 14.8634 15.5238 15.0972 15.325 15.2934C14.922 15.6939 14.3765 15.9181 13.8083 15.9167C13.2411 15.9164 12.6969 15.6927 12.2933 15.2942C12.0951 15.0973 11.9378 14.8633 11.8302 14.6054C11.7227 14.3476 11.6671 14.0711 11.6666 13.7917C11.6666 13.2276 11.8916 12.6876 12.2941 12.2892C12.6974 11.8902 13.2418 11.6665 13.8091 11.6667C14.3775 11.6667 14.9225 11.8909 15.325 12.2892C15.7266 12.6876 15.9525 13.2276 15.9525 13.7917Z" fill="white"/>
</svg>
