<svg width="19" height="20" viewBox="0 0 19 20" fill="none" xmlns="http://www.w3.org/2000/svg">
<path d="M17.3926 15.0114C17.3926 15.2964 17.3293 15.5893 17.1947 15.8743C17.0601 16.1593 16.8859 16.4285 16.6563 16.6818C16.2684 17.1093 15.8409 17.4181 15.358 17.616C14.883 17.8139 14.3684 17.9168 13.8143 17.9168C13.0068 17.9168 12.1438 17.7268 11.2334 17.3389C10.323 16.951 9.41259 16.4285 8.51009 15.7714C7.59967 15.1064 6.73676 14.3702 5.91342 13.5547C5.09801 12.7314 4.36176 11.8685 3.70467 10.966C3.05551 10.0635 2.53301 9.161 2.15301 8.26641C1.77301 7.36391 1.58301 6.501 1.58301 5.67766C1.58301 5.13933 1.67801 4.62475 1.86801 4.14975C2.05801 3.66683 2.35884 3.2235 2.77842 2.82766C3.28509 2.32891 3.83926 2.0835 4.42509 2.0835C4.64676 2.0835 4.86842 2.131 5.06634 2.226C5.27217 2.321 5.45426 2.4635 5.59676 2.66933L7.43342 5.25808C7.57592 5.456 7.67884 5.63808 7.75009 5.81225C7.82134 5.9785 7.86092 6.14475 7.86092 6.29516C7.86092 6.48516 7.80551 6.67516 7.69467 6.85725C7.59176 7.03933 7.44134 7.22933 7.25134 7.41933L6.64967 8.04475C6.56259 8.13183 6.52301 8.23475 6.52301 8.36141C6.52301 8.42475 6.53092 8.48016 6.54676 8.5435C6.57051 8.60683 6.59426 8.65433 6.61009 8.70183C6.75259 8.96308 6.99801 9.3035 7.34634 9.71516C7.70259 10.1268 8.08259 10.5464 8.49426 10.966C8.92176 11.3856 9.33342 11.7735 9.75301 12.1297C10.1647 12.4781 10.5051 12.7156 10.7743 12.8581C10.8138 12.8739 10.8613 12.8977 10.9168 12.9214C10.9801 12.9452 11.0434 12.9531 11.1147 12.9531C11.2493 12.9531 11.3522 12.9056 11.4393 12.8185L12.0409 12.2247C12.2388 12.0268 12.4288 11.8764 12.6109 11.7814C12.793 11.6706 12.9751 11.6152 13.173 11.6152C13.3234 11.6152 13.4818 11.6468 13.6559 11.7181C13.8301 11.7893 14.0122 11.8922 14.2101 12.0268L16.8305 13.8872C17.0363 14.0297 17.1788 14.196 17.2659 14.3939C17.3451 14.5918 17.3926 14.7897 17.3926 15.0114Z" fill="#26221F"/>
<path d="M14.6458 7.62508C14.6458 7.15008 14.2737 6.42175 13.7196 5.828C13.2129 5.28175 12.54 4.85425 11.875 4.85425" stroke="#26221F" stroke-width="1.5" stroke-linecap="round" stroke-linejoin="round"/>
<path d="M17.4167 7.62516C17.4167 4.56141 14.9388 2.0835 11.875 2.0835" stroke="#26221F" stroke-width="1.5" stroke-linecap="round" stroke-linejoin="round"/>
</svg>
