<svg width="32" height="32" viewBox="0 0 32 32" fill="none" xmlns="http://www.w3.org/2000/svg">
<rect width="32" height="32" rx="16" fill="#FF4C00"/>
<path d="M23 23L19.6945 19.6886L23 23ZM21.5263 15.2632C21.5263 16.9243 20.8664 18.5173 19.6919 19.6919C18.5173 20.8664 16.9243 21.5263 15.2632 21.5263C13.6021 21.5263 12.009 20.8664 10.8344 19.6919C9.65987 18.5173 9 16.9243 9 15.2632C9 13.6021 9.65987 12.009 10.8344 10.8344C12.009 9.65987 13.6021 9 15.2632 9C16.9243 9 18.5173 9.65987 19.6919 10.8344C20.8664 12.009 21.5263 13.6021 21.5263 15.2632V15.2632Z" stroke="#26221F" stroke-width="2" stroke-linecap="round"/>
</svg>
