<svg width="24" height="25" viewBox="0 0 24 25" fill="none" xmlns="http://www.w3.org/2000/svg">
<g clip-path="url(#clip0_1644_2685)">
<path d="M23.988 8.57076L22.9815 14.3447C22.8574 14.9825 22.3492 15.3703 21.7632 15.3776H7.09L6.79868 17.0197H20.7832C21.5196 17.0757 22.0191 17.5973 22.028 18.2645C21.9745 18.9994 21.4529 19.5002 20.7832 19.5094H5.31546C4.47892 19.4341 3.9801 18.7673 4.07062 18.0262L4.73276 14.4241L3.7263 4.30648L0.865838 3.40602C0.166818 3.12848 -0.118482 2.49612 0.0447779 1.84336C0.316238 1.16306 0.966698 0.852244 1.60744 1.0223L5.26248 2.18768C5.75488 2.37226 6.03814 2.77532 6.11002 3.24712L6.3219 5.26004L22.902 7.11404C23.6638 7.27906 24.0774 7.88248 23.988 8.57076ZM9.10544 22.1231C9.10544 23.1727 8.25464 24.0235 7.20508 24.0235C6.15554 24.0235 5.30474 23.1727 5.30474 22.1231C5.30474 21.0736 6.15556 20.2228 7.20508 20.2228C8.25462 20.2228 9.10544 21.0736 9.10544 22.1231ZM20.4505 22.1231C20.4505 23.1727 19.5997 24.0235 18.5501 24.0235C17.5006 24.0235 16.6498 23.1727 16.6498 22.1231C16.6498 21.0736 17.5006 20.2228 18.5501 20.2228C19.5997 20.2228 20.4505 21.0736 20.4505 22.1231Z" fill="#26221F"/>
</g>
<defs>
<clipPath id="clip0_1644_2685">
<rect width="24" height="24" fill="white" transform="translate(0 0.5)"/>
</clipPath>
</defs>
</svg>
